<?xml version="1.0" encoding="UTF-8" standalone="no"?><svg height="490" viewBox="0 0 634 490" width="634" xmlns="http://www.w3.org/2000/svg"><g fill="black" stroke="none"/><rect fill="#000000" height="10" width="10" x="112" y="40"/><rect fill="#000000" height="10" width="10" x="112" y="50"/><rect fill="#000000" height="10" width="10" x="112" y="60"/><rect fill="#000000" height="10" width="10" x="112" y="70"/><rect fill="#000000" height="10" width="10" x="112" y="80"/><rect fill="#000000" height="10" width="10" x="112" y="90"/><rect fill="#000000" height="10" width="10" x="112" y="100"/><rect fill="#000000" height="10" width="10" x="112" y="120"/><rect fill="#000000" height="10" width="10" x="112" y="160"/><rect fill="#000000" height="10" width="10" x="112" y="180"/><rect fill="#000000" height="10" width="10" x="112" y="200"/><rect fill="#000000" height="10" width="10" x="112" y="210"/><rect fill="#000000" height="10" width="10" x="112" y="230"/><rect fill="#000000" height="10" width="10" x="112" y="240"/><rect fill="#000000" height="10" width="10" x="112" y="250"/><rect fill="#000000" height="10" width="10" x="112" y="270"/><rect fill="#000000" height="10" width="10" x="112" y="280"/><rect fill="#000000" height="10" width="10" x="112" y="310"/><rect fill="#000000" height="10" width="10" x="112" y="320"/><rect fill="#000000" height="10" width="10" x="112" y="340"/><rect fill="#000000" height="10" width="10" x="112" y="380"/><rect fill="#000000" height="10" width="10" x="112" y="390"/><rect fill="#000000" height="10" width="10" x="112" y="400"/><rect fill="#000000" height="10" width="10" x="112" y="410"/><rect fill="#000000" height="10" width="10" x="112" y="420"/><rect fill="#000000" height="10" width="10" x="112" y="430"/><rect fill="#000000" height="10" width="10" x="112" y="440"/><rect fill="#000000" height="10" width="10" x="122" y="40"/><rect fill="#000000" height="10" width="10" x="122" y="100"/><rect fill="#000000" height="10" width="10" x="122" y="120"/><rect fill="#000000" height="10" width="10" x="122" y="150"/><rect fill="#000000" height="10" width="10" x="122" y="170"/><rect fill="#000000" height="10" width="10" x="122" y="200"/><rect fill="#000000" height="10" width="10" x="122" y="210"/><rect fill="#000000" height="10" width="10" x="122" y="250"/><rect fill="#000000" height="10" width="10" x="122" y="260"/><rect fill="#000000" height="10" width="10" x="122" y="280"/><rect fill="#000000" height="10" width="10" x="122" y="360"/><rect fill="#000000" height="10" width="10" x="122" y="380"/><rect fill="#000000" height="10" width="10" x="122" y="440"/><rect fill="#000000" height="10" width="10" x="132" y="40"/><rect fill="#000000" height="10" width="10" x="132" y="60"/><rect fill="#000000" height="10" width="10" x="132" y="70"/><rect fill="#000000" height="10" width="10" x="132" y="80"/><rect fill="#000000" height="10" width="10" x="132" y="100"/><rect fill="#000000" height="10" width="10" x="132" y="120"/><rect fill="#000000" height="10" width="10" x="132" y="150"/><rect fill="#000000" height="10" width="10" x="132" y="170"/><rect fill="#000000" height="10" width="10" x="132" y="180"/><rect fill="#000000" height="10" width="10" x="132" y="200"/><rect fill="#000000" height="10" width="10" x="132" y="210"/><rect fill="#000000" height="10" width="10" x="132" y="260"/><rect fill="#000000" height="10" width="10" x="132" y="280"/><rect fill="#000000" height="10" width="10" x="132" y="310"/><rect fill="#000000" height="10" width="10" x="132" y="340"/><rect fill="#000000" height="10" width="10" x="132" y="360"/><rect fill="#000000" height="10" width="10" x="132" y="380"/><rect fill="#000000" height="10" width="10" x="132" y="400"/><rect fill="#000000" height="10" width="10" x="132" y="410"/><rect fill="#000000" height="10" width="10" x="132" y="420"/><rect fill="#000000" height="10" width="10" x="132" y="440"/><rect fill="#000000" height="10" width="10" x="142" y="40"/><rect fill="#000000" height="10" width="10" x="142" y="60"/><rect fill="#000000" height="10" width="10" x="142" y="70"/><rect fill="#000000" height="10" width="10" x="142" y="80"/><rect fill="#000000" height="10" width="10" x="142" y="100"/><rect fill="#000000" height="10" width="10" x="142" y="120"/><rect fill="#000000" height="10" width="10" x="142" y="150"/><rect fill="#000000" height="10" width="10" x="142" y="160"/><rect fill="#000000" height="10" width="10" x="142" y="180"/><rect fill="#000000" height="10" width="10" x="142" y="200"/><rect fill="#000000" height="10" width="10" x="142" y="220"/><rect fill="#000000" height="10" width="10" x="142" y="300"/><rect fill="#000000" height="10" width="10" x="142" y="330"/><rect fill="#000000" height="10" width="10" x="142" y="340"/><rect fill="#000000" height="10" width="10" x="142" y="350"/><rect fill="#000000" height="10" width="10" x="142" y="380"/><rect fill="#000000" height="10" width="10" x="142" y="400"/><rect fill="#000000" height="10" width="10" x="142" y="410"/><rect fill="#000000" height="10" width="10" x="142" y="420"/><rect fill="#000000" height="10" width="10" x="142" y="440"/><rect fill="#000000" height="10" width="10" x="152" y="40"/><rect fill="#000000" height="10" width="10" x="152" y="60"/><rect fill="#000000" height="10" width="10" x="152" y="70"/><rect fill="#000000" height="10" width="10" x="152" y="80"/><rect fill="#000000" height="10" width="10" x="152" y="100"/><rect fill="#000000" height="10" width="10" x="152" y="140"/><rect fill="#000000" height="10" width="10" x="152" y="150"/><rect fill="#000000" height="10" width="10" x="152" y="170"/><rect fill="#000000" height="10" width="10" x="152" y="180"/><rect fill="#000000" height="10" width="10" x="152" y="190"/><rect fill="#000000" height="10" width="10" x="152" y="200"/><rect fill="#000000" height="10" width="10" x="152" y="210"/><rect fill="#000000" height="10" width="10" x="152" y="220"/><rect fill="#000000" height="10" width="10" x="152" y="270"/><rect fill="#000000" height="10" width="10" x="152" y="290"/><rect fill="#000000" height="10" width="10" x="152" y="300"/><rect fill="#000000" height="10" width="10" x="152" y="320"/><rect fill="#000000" height="10" width="10" x="152" y="340"/><rect fill="#000000" height="10" width="10" x="152" y="350"/><rect fill="#000000" height="10" width="10" x="152" y="360"/><rect fill="#000000" height="10" width="10" x="152" y="380"/><rect fill="#000000" height="10" width="10" x="152" y="400"/><rect fill="#000000" height="10" width="10" x="152" y="410"/><rect fill="#000000" height="10" width="10" x="152" y="420"/><rect fill="#000000" height="10" width="10" x="152" y="440"/><rect fill="#000000" height="10" width="10" x="162" y="40"/><rect fill="#000000" height="10" width="10" x="162" y="100"/><rect fill="#000000" height="10" width="10" x="162" y="130"/><rect fill="#000000" height="10" width="10" x="162" y="170"/><rect fill="#000000" height="10" width="10" x="162" y="210"/><rect fill="#000000" height="10" width="10" x="162" y="260"/><rect fill="#000000" height="10" width="10" x="162" y="320"/><rect fill="#000000" height="10" width="10" x="162" y="350"/><rect fill="#000000" height="10" width="10" x="162" y="380"/><rect fill="#000000" height="10" width="10" x="162" y="440"/><rect fill="#000000" height="10" width="10" x="172" y="40"/><rect fill="#000000" height="10" width="10" x="172" y="50"/><rect fill="#000000" height="10" width="10" x="172" y="60"/><rect fill="#000000" height="10" width="10" x="172" y="70"/><rect fill="#000000" height="10" width="10" x="172" y="80"/><rect fill="#000000" height="10" width="10" x="172" y="90"/><rect fill="#000000" height="10" width="10" x="172" y="100"/><rect fill="#000000" height="10" width="10" x="172" y="120"/><rect fill="#000000" height="10" width="10" x="172" y="140"/><rect fill="#000000" height="10" width="10" x="172" y="160"/><rect fill="#000000" height="10" width="10" x="172" y="180"/><rect fill="#000000" height="10" width="10" x="172" y="200"/><rect fill="#000000" height="10" width="10" x="172" y="220"/><rect fill="#000000" height="10" width="10" x="172" y="240"/><rect fill="#000000" height="10" width="10" x="172" y="260"/><rect fill="#000000" height="10" width="10" x="172" y="280"/><rect fill="#000000" height="10" width="10" x="172" y="300"/><rect fill="#000000" height="10" width="10" x="172" y="320"/><rect fill="#000000" height="10" width="10" x="172" y="340"/><rect fill="#000000" height="10" width="10" x="172" y="360"/><rect fill="#000000" height="10" width="10" x="172" y="380"/><rect fill="#000000" height="10" width="10" x="172" y="390"/><rect fill="#000000" height="10" width="10" x="172" y="400"/><rect fill="#000000" height="10" width="10" x="172" y="410"/><rect fill="#000000" height="10" width="10" x="172" y="420"/><rect fill="#000000" height="10" width="10" x="172" y="430"/><rect fill="#000000" height="10" width="10" x="172" y="440"/><rect fill="#000000" height="10" width="10" x="182" y="130"/><rect fill="#000000" height="10" width="10" x="182" y="140"/><rect fill="#000000" height="10" width="10" x="182" y="180"/><rect fill="#000000" height="10" width="10" x="182" y="190"/><rect fill="#000000" height="10" width="10" x="182" y="240"/><rect fill="#000000" height="10" width="10" x="182" y="260"/><rect fill="#000000" height="10" width="10" x="182" y="270"/><rect fill="#000000" height="10" width="10" x="182" y="280"/><rect fill="#000000" height="10" width="10" x="182" y="290"/><rect fill="#000000" height="10" width="10" x="182" y="300"/><rect fill="#000000" height="10" width="10" x="182" y="310"/><rect fill="#000000" height="10" width="10" x="182" y="320"/><rect fill="#000000" height="10" width="10" x="182" y="350"/><rect fill="#000000" height="10" width="10" x="192" y="40"/><rect fill="#000000" height="10" width="10" x="192" y="60"/><rect fill="#000000" height="10" width="10" x="192" y="70"/><rect fill="#000000" height="10" width="10" x="192" y="80"/><rect fill="#000000" height="10" width="10" x="192" y="100"/><rect fill="#000000" height="10" width="10" x="192" y="120"/><rect fill="#000000" height="10" width="10" x="192" y="140"/><rect fill="#000000" height="10" width="10" x="192" y="150"/><rect fill="#000000" height="10" width="10" x="192" y="180"/><rect fill="#000000" height="10" width="10" x="192" y="210"/><rect fill="#000000" height="10" width="10" x="192" y="220"/><rect fill="#000000" height="10" width="10" x="192" y="230"/><rect fill="#000000" height="10" width="10" x="192" y="240"/><rect fill="#000000" height="10" width="10" x="192" y="250"/><rect fill="#000000" height="10" width="10" x="192" y="260"/><rect fill="#000000" height="10" width="10" x="192" y="280"/><rect fill="#000000" height="10" width="10" x="192" y="300"/><rect fill="#000000" height="10" width="10" x="192" y="320"/><rect fill="#000000" height="10" width="10" x="192" y="330"/><rect fill="#000000" height="10" width="10" x="192" y="340"/><rect fill="#000000" height="10" width="10" x="192" y="360"/><rect fill="#000000" height="10" width="10" x="192" y="370"/><rect fill="#000000" height="10" width="10" x="192" y="410"/><rect fill="#000000" height="10" width="10" x="192" y="420"/><rect fill="#000000" height="10" width="10" x="192" y="430"/><rect fill="#000000" height="10" width="10" x="192" y="440"/><rect fill="#000000" height="10" width="10" x="202" y="40"/><rect fill="#000000" height="10" width="10" x="202" y="80"/><rect fill="#000000" height="10" width="10" x="202" y="120"/><rect fill="#000000" height="10" width="10" x="202" y="140"/><rect fill="#000000" height="10" width="10" x="202" y="160"/><rect fill="#000000" height="10" width="10" x="202" y="170"/><rect fill="#000000" height="10" width="10" x="202" y="230"/><rect fill="#000000" height="10" width="10" x="202" y="290"/><rect fill="#000000" height="10" width="10" x="202" y="300"/><rect fill="#000000" height="10" width="10" x="202" y="330"/><rect fill="#000000" height="10" width="10" x="202" y="340"/><rect fill="#000000" height="10" width="10" x="202" y="350"/><rect fill="#000000" height="10" width="10" x="202" y="370"/><rect fill="#000000" height="10" width="10" x="202" y="390"/><rect fill="#000000" height="10" width="10" x="202" y="400"/><rect fill="#000000" height="10" width="10" x="202" y="410"/><rect fill="#000000" height="10" width="10" x="202" y="440"/><rect fill="#000000" height="10" width="10" x="212" y="80"/><rect fill="#000000" height="10" width="10" x="212" y="100"/><rect fill="#000000" height="10" width="10" x="212" y="110"/><rect fill="#000000" height="10" width="10" x="212" y="120"/><rect fill="#000000" height="10" width="10" x="212" y="160"/><rect fill="#000000" height="10" width="10" x="212" y="210"/><rect fill="#000000" height="10" width="10" x="212" y="220"/><rect fill="#000000" height="10" width="10" x="212" y="230"/><rect fill="#000000" height="10" width="10" x="212" y="240"/><rect fill="#000000" height="10" width="10" x="212" y="250"/><rect fill="#000000" height="10" width="10" x="212" y="280"/><rect fill="#000000" height="10" width="10" x="212" y="340"/><rect fill="#000000" height="10" width="10" x="212" y="390"/><rect fill="#000000" height="10" width="10" x="212" y="400"/><rect fill="#000000" height="10" width="10" x="212" y="420"/><rect fill="#000000" height="10" width="10" x="212" y="440"/><rect fill="#000000" height="10" width="10" x="222" y="40"/><rect fill="#000000" height="10" width="10" x="222" y="60"/><rect fill="#000000" height="10" width="10" x="222" y="70"/><rect fill="#000000" height="10" width="10" x="222" y="90"/><rect fill="#000000" height="10" width="10" x="222" y="110"/><rect fill="#000000" height="10" width="10" x="222" y="120"/><rect fill="#000000" height="10" width="10" x="222" y="130"/><rect fill="#000000" height="10" width="10" x="222" y="140"/><rect fill="#000000" height="10" width="10" x="222" y="150"/><rect fill="#000000" height="10" width="10" x="222" y="170"/><rect fill="#000000" height="10" width="10" x="222" y="200"/><rect fill="#000000" height="10" width="10" x="222" y="220"/><rect fill="#000000" height="10" width="10" x="222" y="230"/><rect fill="#000000" height="10" width="10" x="222" y="270"/><rect fill="#000000" height="10" width="10" x="222" y="280"/><rect fill="#000000" height="10" width="10" x="222" y="320"/><rect fill="#000000" height="10" width="10" x="222" y="350"/><rect fill="#000000" height="10" width="10" x="222" y="380"/><rect fill="#000000" height="10" width="10" x="222" y="390"/><rect fill="#000000" height="10" width="10" x="222" y="410"/><rect fill="#000000" height="10" width="10" x="222" y="420"/><rect fill="#000000" height="10" width="10" x="222" y="430"/><rect fill="#000000" height="10" width="10" x="232" y="40"/><rect fill="#000000" height="10" width="10" x="232" y="100"/><rect fill="#000000" height="10" width="10" x="232" y="130"/><rect fill="#000000" height="10" width="10" x="232" y="150"/><rect fill="#000000" height="10" width="10" x="232" y="180"/><rect fill="#000000" height="10" width="10" x="232" y="190"/><rect fill="#000000" height="10" width="10" x="232" y="220"/><rect fill="#000000" height="10" width="10" x="232" y="230"/><rect fill="#000000" height="10" width="10" x="232" y="270"/><rect fill="#000000" height="10" width="10" x="232" y="280"/><rect fill="#000000" height="10" width="10" x="232" y="290"/><rect fill="#000000" height="10" width="10" x="232" y="300"/><rect fill="#000000" height="10" width="10" x="232" y="320"/><rect fill="#000000" height="10" width="10" x="232" y="390"/><rect fill="#000000" height="10" width="10" x="232" y="400"/><rect fill="#000000" height="10" width="10" x="232" y="410"/><rect fill="#000000" height="10" width="10" x="242" y="60"/><rect fill="#000000" height="10" width="10" x="242" y="70"/><rect fill="#000000" height="10" width="10" x="242" y="120"/><rect fill="#000000" height="10" width="10" x="242" y="150"/><rect fill="#000000" height="10" width="10" x="242" y="180"/><rect fill="#000000" height="10" width="10" x="242" y="190"/><rect fill="#000000" height="10" width="10" x="242" y="200"/><rect fill="#000000" height="10" width="10" x="242" y="210"/><rect fill="#000000" height="10" width="10" x="242" y="220"/><rect fill="#000000" height="10" width="10" x="242" y="260"/><rect fill="#000000" height="10" width="10" x="242" y="280"/><rect fill="#000000" height="10" width="10" x="242" y="330"/><rect fill="#000000" height="10" width="10" x="242" y="340"/><rect fill="#000000" height="10" width="10" x="242" y="350"/><rect fill="#000000" height="10" width="10" x="242" y="390"/><rect fill="#000000" height="10" width="10" x="242" y="420"/><rect fill="#000000" height="10" width="10" x="242" y="440"/><rect fill="#000000" height="10" width="10" x="252" y="60"/><rect fill="#000000" height="10" width="10" x="252" y="80"/><rect fill="#000000" height="10" width="10" x="252" y="90"/><rect fill="#000000" height="10" width="10" x="252" y="100"/><rect fill="#000000" height="10" width="10" x="252" y="120"/><rect fill="#000000" height="10" width="10" x="252" y="130"/><rect fill="#000000" height="10" width="10" x="252" y="180"/><rect fill="#000000" height="10" width="10" x="252" y="200"/><rect fill="#000000" height="10" width="10" x="252" y="220"/><rect fill="#000000" height="10" width="10" x="252" y="230"/><rect fill="#000000" height="10" width="10" x="252" y="250"/><rect fill="#000000" height="10" width="10" x="252" y="270"/><rect fill="#000000" height="10" width="10" x="252" y="290"/><rect fill="#000000" height="10" width="10" x="252" y="300"/><rect fill="#000000" height="10" width="10" x="252" y="310"/><rect fill="#000000" height="10" width="10" x="252" y="320"/><rect fill="#000000" height="10" width="10" x="252" y="340"/><rect fill="#000000" height="10" width="10" x="252" y="350"/><rect fill="#000000" height="10" width="10" x="252" y="360"/><rect fill="#000000" height="10" width="10" x="252" y="380"/><rect fill="#000000" height="10" width="10" x="252" y="410"/><rect fill="#000000" height="10" width="10" x="252" y="420"/><rect fill="#000000" height="10" width="10" x="252" y="440"/><rect fill="#000000" height="10" width="10" x="262" y="40"/><rect fill="#000000" height="10" width="10" x="262" y="70"/><rect fill="#000000" height="10" width="10" x="262" y="110"/><rect fill="#000000" height="10" width="10" x="262" y="150"/><rect fill="#000000" height="10" width="10" x="262" y="160"/><rect fill="#000000" height="10" width="10" x="262" y="170"/><rect fill="#000000" height="10" width="10" x="262" y="210"/><rect fill="#000000" height="10" width="10" x="262" y="220"/><rect fill="#000000" height="10" width="10" x="262" y="230"/><rect fill="#000000" height="10" width="10" x="262" y="250"/><rect fill="#000000" height="10" width="10" x="262" y="280"/><rect fill="#000000" height="10" width="10" x="262" y="340"/><rect fill="#000000" height="10" width="10" x="262" y="400"/><rect fill="#000000" height="10" width="10" x="262" y="410"/><rect fill="#000000" height="10" width="10" x="272" y="40"/><rect fill="#000000" height="10" width="10" x="272" y="70"/><rect fill="#000000" height="10" width="10" x="272" y="90"/><rect fill="#000000" height="10" width="10" x="272" y="100"/><rect fill="#000000" height="10" width="10" x="272" y="110"/><rect fill="#000000" height="10" width="10" x="272" y="130"/><rect fill="#000000" height="10" width="10" x="272" y="140"/><rect fill="#000000" height="10" width="10" x="272" y="160"/><rect fill="#000000" height="10" width="10" x="272" y="170"/><rect fill="#000000" height="10" width="10" x="272" y="190"/><rect fill="#000000" height="10" width="10" x="272" y="210"/><rect fill="#000000" height="10" width="10" x="272" y="220"/><rect fill="#000000" height="10" width="10" x="272" y="230"/><rect fill="#000000" height="10" width="10" x="272" y="240"/><rect fill="#000000" height="10" width="10" x="272" y="260"/><rect fill="#000000" height="10" width="10" x="272" y="320"/><rect fill="#000000" height="10" width="10" x="272" y="330"/><rect fill="#000000" height="10" width="10" x="272" y="350"/><rect fill="#000000" height="10" width="10" x="272" y="380"/><rect fill="#000000" height="10" width="10" x="272" y="400"/><rect fill="#000000" height="10" width="10" x="272" y="430"/><rect fill="#000000" height="10" width="10" x="272" y="440"/><rect fill="#000000" height="10" width="10" x="282" y="70"/><rect fill="#000000" height="10" width="10" x="282" y="80"/><rect fill="#000000" height="10" width="10" x="282" y="90"/><rect fill="#000000" height="10" width="10" x="282" y="110"/><rect fill="#000000" height="10" width="10" x="282" y="120"/><rect fill="#000000" height="10" width="10" x="282" y="140"/><rect fill="#000000" height="10" width="10" x="282" y="150"/><rect fill="#000000" height="10" width="10" x="282" y="170"/><rect fill="#000000" height="10" width="10" x="282" y="180"/><rect fill="#000000" height="10" width="10" x="282" y="190"/><rect fill="#000000" height="10" width="10" x="282" y="230"/><rect fill="#000000" height="10" width="10" x="282" y="240"/><rect fill="#000000" height="10" width="10" x="282" y="270"/><rect fill="#000000" height="10" width="10" x="282" y="290"/><rect fill="#000000" height="10" width="10" x="282" y="300"/><rect fill="#000000" height="10" width="10" x="282" y="350"/><rect fill="#000000" height="10" width="10" x="282" y="360"/><rect fill="#000000" height="10" width="10" x="282" y="380"/><rect fill="#000000" height="10" width="10" x="282" y="390"/><rect fill="#000000" height="10" width="10" x="282" y="400"/><rect fill="#000000" height="10" width="10" x="282" y="410"/><rect fill="#000000" height="10" width="10" x="282" y="440"/><rect fill="#000000" height="10" width="10" x="292" y="40"/><rect fill="#000000" height="10" width="10" x="292" y="60"/><rect fill="#000000" height="10" width="10" x="292" y="90"/><rect fill="#000000" height="10" width="10" x="292" y="100"/><rect fill="#000000" height="10" width="10" x="292" y="110"/><rect fill="#000000" height="10" width="10" x="292" y="130"/><rect fill="#000000" height="10" width="10" x="292" y="140"/><rect fill="#000000" height="10" width="10" x="292" y="160"/><rect fill="#000000" height="10" width="10" x="292" y="190"/><rect fill="#000000" height="10" width="10" x="292" y="200"/><rect fill="#000000" height="10" width="10" x="292" y="210"/><rect fill="#000000" height="10" width="10" x="292" y="230"/><rect fill="#000000" height="10" width="10" x="292" y="250"/><rect fill="#000000" height="10" width="10" x="292" y="260"/><rect fill="#000000" height="10" width="10" x="292" y="280"/><rect fill="#000000" height="10" width="10" x="292" y="300"/><rect fill="#000000" height="10" width="10" x="292" y="310"/><rect fill="#000000" height="10" width="10" x="292" y="330"/><rect fill="#000000" height="10" width="10" x="292" y="380"/><rect fill="#000000" height="10" width="10" x="292" y="410"/><rect fill="#000000" height="10" width="10" x="292" y="420"/><rect fill="#000000" height="10" width="10" x="302" y="60"/><rect fill="#000000" height="10" width="10" x="302" y="120"/><rect fill="#000000" height="10" width="10" x="302" y="130"/><rect fill="#000000" height="10" width="10" x="302" y="140"/><rect fill="#000000" height="10" width="10" x="302" y="150"/><rect fill="#000000" height="10" width="10" x="302" y="170"/><rect fill="#000000" height="10" width="10" x="302" y="190"/><rect fill="#000000" height="10" width="10" x="302" y="210"/><rect fill="#000000" height="10" width="10" x="302" y="240"/><rect fill="#000000" height="10" width="10" x="302" y="250"/><rect fill="#000000" height="10" width="10" x="302" y="260"/><rect fill="#000000" height="10" width="10" x="302" y="290"/><rect fill="#000000" height="10" width="10" x="302" y="300"/><rect fill="#000000" height="10" width="10" x="302" y="310"/><rect fill="#000000" height="10" width="10" x="302" y="330"/><rect fill="#000000" height="10" width="10" x="302" y="350"/><rect fill="#000000" height="10" width="10" x="302" y="360"/><rect fill="#000000" height="10" width="10" x="302" y="370"/><rect fill="#000000" height="10" width="10" x="302" y="390"/><rect fill="#000000" height="10" width="10" x="302" y="420"/><rect fill="#000000" height="10" width="10" x="302" y="430"/><rect fill="#000000" height="10" width="10" x="312" y="40"/><rect fill="#000000" height="10" width="10" x="312" y="60"/><rect fill="#000000" height="10" width="10" x="312" y="70"/><rect fill="#000000" height="10" width="10" x="312" y="80"/><rect fill="#000000" height="10" width="10" x="312" y="100"/><rect fill="#000000" height="10" width="10" x="312" y="130"/><rect fill="#000000" height="10" width="10" x="312" y="140"/><rect fill="#000000" height="10" width="10" x="312" y="150"/><rect fill="#000000" height="10" width="10" x="312" y="160"/><rect fill="#000000" height="10" width="10" x="312" y="170"/><rect fill="#000000" height="10" width="10" x="312" y="190"/><rect fill="#000000" height="10" width="10" x="312" y="260"/><rect fill="#000000" height="10" width="10" x="312" y="270"/><rect fill="#000000" height="10" width="10" x="312" y="290"/><rect fill="#000000" height="10" width="10" x="312" y="300"/><rect fill="#000000" height="10" width="10" x="312" y="330"/><rect fill="#000000" height="10" width="10" x="312" y="340"/><rect fill="#000000" height="10" width="10" x="312" y="350"/><rect fill="#000000" height="10" width="10" x="312" y="360"/><rect fill="#000000" height="10" width="10" x="312" y="390"/><rect fill="#000000" height="10" width="10" x="312" y="410"/><rect fill="#000000" height="10" width="10" x="312" y="420"/><rect fill="#000000" height="10" width="10" x="312" y="430"/><rect fill="#000000" height="10" width="10" x="322" y="40"/><rect fill="#000000" height="10" width="10" x="322" y="60"/><rect fill="#000000" height="10" width="10" x="322" y="120"/><rect fill="#000000" height="10" width="10" x="322" y="130"/><rect fill="#000000" height="10" width="10" x="322" y="190"/><rect fill="#000000" height="10" width="10" x="322" y="200"/><rect fill="#000000" height="10" width="10" x="322" y="230"/><rect fill="#000000" height="10" width="10" x="322" y="250"/><rect fill="#000000" height="10" width="10" x="322" y="270"/><rect fill="#000000" height="10" width="10" x="322" y="370"/><rect fill="#000000" height="10" width="10" x="322" y="390"/><rect fill="#000000" height="10" width="10" x="322" y="400"/><rect fill="#000000" height="10" width="10" x="322" y="440"/><rect fill="#000000" height="10" width="10" x="332" y="40"/><rect fill="#000000" height="10" width="10" x="332" y="50"/><rect fill="#000000" height="10" width="10" x="332" y="100"/><rect fill="#000000" height="10" width="10" x="332" y="120"/><rect fill="#000000" height="10" width="10" x="332" y="130"/><rect fill="#000000" height="10" width="10" x="332" y="140"/><rect fill="#000000" height="10" width="10" x="332" y="210"/><rect fill="#000000" height="10" width="10" x="332" y="220"/><rect fill="#000000" height="10" width="10" x="332" y="240"/><rect fill="#000000" height="10" width="10" x="332" y="250"/><rect fill="#000000" height="10" width="10" x="332" y="260"/><rect fill="#000000" height="10" width="10" x="332" y="270"/><rect fill="#000000" height="10" width="10" x="332" y="280"/><rect fill="#000000" height="10" width="10" x="332" y="330"/><rect fill="#000000" height="10" width="10" x="332" y="350"/><rect fill="#000000" height="10" width="10" x="332" y="360"/><rect fill="#000000" height="10" width="10" x="332" y="370"/><rect fill="#000000" height="10" width="10" x="332" y="380"/><rect fill="#000000" height="10" width="10" x="332" y="390"/><rect fill="#000000" height="10" width="10" x="332" y="400"/><rect fill="#000000" height="10" width="10" x="332" y="410"/><rect fill="#000000" height="10" width="10" x="342" y="40"/><rect fill="#000000" height="10" width="10" x="342" y="60"/><rect fill="#000000" height="10" width="10" x="342" y="90"/><rect fill="#000000" height="10" width="10" x="342" y="150"/><rect fill="#000000" height="10" width="10" x="342" y="190"/><rect fill="#000000" height="10" width="10" x="342" y="200"/><rect fill="#000000" height="10" width="10" x="342" y="250"/><rect fill="#000000" height="10" width="10" x="342" y="270"/><rect fill="#000000" height="10" width="10" x="342" y="290"/><rect fill="#000000" height="10" width="10" x="342" y="310"/><rect fill="#000000" height="10" width="10" x="342" y="320"/><rect fill="#000000" height="10" width="10" x="342" y="330"/><rect fill="#000000" height="10" width="10" x="342" y="340"/><rect fill="#000000" height="10" width="10" x="342" y="370"/><rect fill="#000000" height="10" width="10" x="342" y="380"/><rect fill="#000000" height="10" width="10" x="342" y="410"/><rect fill="#000000" height="10" width="10" x="342" y="440"/><rect fill="#000000" height="10" width="10" x="352" y="80"/><rect fill="#000000" height="10" width="10" x="352" y="100"/><rect fill="#000000" height="10" width="10" x="352" y="120"/><rect fill="#000000" height="10" width="10" x="352" y="150"/><rect fill="#000000" height="10" width="10" x="352" y="170"/><rect fill="#000000" height="10" width="10" x="352" y="200"/><rect fill="#000000" height="10" width="10" x="352" y="210"/><rect fill="#000000" height="10" width="10" x="352" y="240"/><rect fill="#000000" height="10" width="10" x="352" y="250"/><rect fill="#000000" height="10" width="10" x="352" y="270"/><rect fill="#000000" height="10" width="10" x="352" y="290"/><rect fill="#000000" height="10" width="10" x="352" y="300"/><rect fill="#000000" height="10" width="10" x="352" y="310"/><rect fill="#000000" height="10" width="10" x="352" y="340"/><rect fill="#000000" height="10" width="10" x="352" y="350"/><rect fill="#000000" height="10" width="10" x="352" y="360"/><rect fill="#000000" height="10" width="10" x="352" y="390"/><rect fill="#000000" height="10" width="10" x="352" y="400"/><rect fill="#000000" height="10" width="10" x="352" y="410"/><rect fill="#000000" height="10" width="10" x="352" y="440"/><rect fill="#000000" height="10" width="10" x="362" y="50"/><rect fill="#000000" height="10" width="10" x="362" y="60"/><rect fill="#000000" height="10" width="10" x="362" y="90"/><rect fill="#000000" height="10" width="10" x="362" y="110"/><rect fill="#000000" height="10" width="10" x="362" y="120"/><rect fill="#000000" height="10" width="10" x="362" y="150"/><rect fill="#000000" height="10" width="10" x="362" y="190"/><rect fill="#000000" height="10" width="10" x="362" y="210"/><rect fill="#000000" height="10" width="10" x="362" y="220"/><rect fill="#000000" height="10" width="10" x="362" y="260"/><rect fill="#000000" height="10" width="10" x="362" y="280"/><rect fill="#000000" height="10" width="10" x="362" y="310"/><rect fill="#000000" height="10" width="10" x="362" y="330"/><rect fill="#000000" height="10" width="10" x="362" y="340"/><rect fill="#000000" height="10" width="10" x="362" y="360"/><rect fill="#000000" height="10" width="10" x="362" y="380"/><rect fill="#000000" height="10" width="10" x="362" y="400"/><rect fill="#000000" height="10" width="10" x="372" y="40"/><rect fill="#000000" height="10" width="10" x="372" y="60"/><rect fill="#000000" height="10" width="10" x="372" y="80"/><rect fill="#000000" height="10" width="10" x="372" y="90"/><rect fill="#000000" height="10" width="10" x="372" y="100"/><rect fill="#000000" height="10" width="10" x="372" y="160"/><rect fill="#000000" height="10" width="10" x="372" y="170"/><rect fill="#000000" height="10" width="10" x="372" y="190"/><rect fill="#000000" height="10" width="10" x="372" y="200"/><rect fill="#000000" height="10" width="10" x="372" y="250"/><rect fill="#000000" height="10" width="10" x="372" y="290"/><rect fill="#000000" height="10" width="10" x="372" y="300"/><rect fill="#000000" height="10" width="10" x="372" y="330"/><rect fill="#000000" height="10" width="10" x="372" y="360"/><rect fill="#000000" height="10" width="10" x="372" y="430"/><rect fill="#000000" height="10" width="10" x="382" y="40"/><rect fill="#000000" height="10" width="10" x="382" y="60"/><rect fill="#000000" height="10" width="10" x="382" y="70"/><rect fill="#000000" height="10" width="10" x="382" y="80"/><rect fill="#000000" height="10" width="10" x="382" y="90"/><rect fill="#000000" height="10" width="10" x="382" y="150"/><rect fill="#000000" height="10" width="10" x="382" y="160"/><rect fill="#000000" height="10" width="10" x="382" y="190"/><rect fill="#000000" height="10" width="10" x="382" y="210"/><rect fill="#000000" height="10" width="10" x="382" y="220"/><rect fill="#000000" height="10" width="10" x="382" y="230"/><rect fill="#000000" height="10" width="10" x="382" y="250"/><rect fill="#000000" height="10" width="10" x="382" y="270"/><rect fill="#000000" height="10" width="10" x="382" y="280"/><rect fill="#000000" height="10" width="10" x="382" y="330"/><rect fill="#000000" height="10" width="10" x="382" y="340"/><rect fill="#000000" height="10" width="10" x="382" y="350"/><rect fill="#000000" height="10" width="10" x="382" y="390"/><rect fill="#000000" height="10" width="10" x="382" y="400"/><rect fill="#000000" height="10" width="10" x="382" y="410"/><rect fill="#000000" height="10" width="10" x="392" y="40"/><rect fill="#000000" height="10" width="10" x="392" y="50"/><rect fill="#000000" height="10" width="10" x="392" y="60"/><rect fill="#000000" height="10" width="10" x="392" y="100"/><rect fill="#000000" height="10" width="10" x="392" y="110"/><rect fill="#000000" height="10" width="10" x="392" y="130"/><rect fill="#000000" height="10" width="10" x="392" y="160"/><rect fill="#000000" height="10" width="10" x="392" y="190"/><rect fill="#000000" height="10" width="10" x="392" y="220"/><rect fill="#000000" height="10" width="10" x="392" y="230"/><rect fill="#000000" height="10" width="10" x="392" y="240"/><rect fill="#000000" height="10" width="10" x="392" y="250"/><rect fill="#000000" height="10" width="10" x="392" y="260"/><rect fill="#000000" height="10" width="10" x="392" y="270"/><rect fill="#000000" height="10" width="10" x="392" y="280"/><rect fill="#000000" height="10" width="10" x="392" y="300"/><rect fill="#000000" height="10" width="10" x="392" y="310"/><rect fill="#000000" height="10" width="10" x="392" y="320"/><rect fill="#000000" height="10" width="10" x="392" y="330"/><rect fill="#000000" height="10" width="10" x="392" y="340"/><rect fill="#000000" height="10" width="10" x="392" y="350"/><rect fill="#000000" height="10" width="10" x="392" y="360"/><rect fill="#000000" height="10" width="10" x="392" y="370"/><rect fill="#000000" height="10" width="10" x="392" y="400"/><rect fill="#000000" height="10" width="10" x="392" y="410"/><rect fill="#000000" height="10" width="10" x="392" y="430"/><rect fill="#000000" height="10" width="10" x="392" y="440"/><rect fill="#000000" height="10" width="10" x="402" y="50"/><rect fill="#000000" height="10" width="10" x="402" y="80"/><rect fill="#000000" height="10" width="10" x="402" y="110"/><rect fill="#000000" height="10" width="10" x="402" y="140"/><rect fill="#000000" height="10" width="10" x="402" y="150"/><rect fill="#000000" height="10" width="10" x="402" y="170"/><rect fill="#000000" height="10" width="10" x="402" y="200"/><rect fill="#000000" height="10" width="10" x="402" y="240"/><rect fill="#000000" height="10" width="10" x="402" y="270"/><rect fill="#000000" height="10" width="10" x="402" y="280"/><rect fill="#000000" height="10" width="10" x="402" y="290"/><rect fill="#000000" height="10" width="10" x="402" y="300"/><rect fill="#000000" height="10" width="10" x="402" y="340"/><rect fill="#000000" height="10" width="10" x="402" y="360"/><rect fill="#000000" height="10" width="10" x="402" y="380"/><rect fill="#000000" height="10" width="10" x="402" y="390"/><rect fill="#000000" height="10" width="10" x="402" y="400"/><rect fill="#000000" height="10" width="10" x="402" y="410"/><rect fill="#000000" height="10" width="10" x="402" y="420"/><rect fill="#000000" height="10" width="10" x="402" y="440"/><rect fill="#000000" height="10" width="10" x="412" y="50"/><rect fill="#000000" height="10" width="10" x="412" y="60"/><rect fill="#000000" height="10" width="10" x="412" y="70"/><rect fill="#000000" height="10" width="10" x="412" y="80"/><rect fill="#000000" height="10" width="10" x="412" y="90"/><rect fill="#000000" height="10" width="10" x="412" y="100"/><rect fill="#000000" height="10" width="10" x="412" y="110"/><rect fill="#000000" height="10" width="10" x="412" y="140"/><rect fill="#000000" height="10" width="10" x="412" y="180"/><rect fill="#000000" height="10" width="10" x="412" y="200"/><rect fill="#000000" height="10" width="10" x="412" y="210"/><rect fill="#000000" height="10" width="10" x="412" y="230"/><rect fill="#000000" height="10" width="10" x="412" y="250"/><rect fill="#000000" height="10" width="10" x="412" y="260"/><rect fill="#000000" height="10" width="10" x="412" y="290"/><rect fill="#000000" height="10" width="10" x="412" y="330"/><rect fill="#000000" height="10" width="10" x="412" y="370"/><rect fill="#000000" height="10" width="10" x="412" y="380"/><rect fill="#000000" height="10" width="10" x="412" y="400"/><rect fill="#000000" height="10" width="10" x="422" y="40"/><rect fill="#000000" height="10" width="10" x="422" y="60"/><rect fill="#000000" height="10" width="10" x="422" y="80"/><rect fill="#000000" height="10" width="10" x="422" y="90"/><rect fill="#000000" height="10" width="10" x="422" y="120"/><rect fill="#000000" height="10" width="10" x="422" y="180"/><rect fill="#000000" height="10" width="10" x="422" y="190"/><rect fill="#000000" height="10" width="10" x="422" y="210"/><rect fill="#000000" height="10" width="10" x="422" y="220"/><rect fill="#000000" height="10" width="10" x="422" y="230"/><rect fill="#000000" height="10" width="10" x="422" y="240"/><rect fill="#000000" height="10" width="10" x="422" y="310"/><rect fill="#000000" height="10" width="10" x="422" y="340"/><rect fill="#000000" height="10" width="10" x="422" y="350"/><rect fill="#000000" height="10" width="10" x="422" y="360"/><rect fill="#000000" height="10" width="10" x="422" y="390"/><rect fill="#000000" height="10" width="10" x="422" y="400"/><rect fill="#000000" height="10" width="10" x="422" y="410"/><rect fill="#000000" height="10" width="10" x="422" y="440"/><rect fill="#000000" height="10" width="10" x="432" y="40"/><rect fill="#000000" height="10" width="10" x="432" y="50"/><rect fill="#000000" height="10" width="10" x="432" y="60"/><rect fill="#000000" height="10" width="10" x="432" y="70"/><rect fill="#000000" height="10" width="10" x="432" y="80"/><rect fill="#000000" height="10" width="10" x="432" y="100"/><rect fill="#000000" height="10" width="10" x="432" y="170"/><rect fill="#000000" height="10" width="10" x="432" y="180"/><rect fill="#000000" height="10" width="10" x="432" y="190"/><rect fill="#000000" height="10" width="10" x="432" y="200"/><rect fill="#000000" height="10" width="10" x="432" y="210"/><rect fill="#000000" height="10" width="10" x="432" y="240"/><rect fill="#000000" height="10" width="10" x="432" y="250"/><rect fill="#000000" height="10" width="10" x="432" y="270"/><rect fill="#000000" height="10" width="10" x="432" y="310"/><rect fill="#000000" height="10" width="10" x="432" y="320"/><rect fill="#000000" height="10" width="10" x="432" y="360"/><rect fill="#000000" height="10" width="10" x="432" y="370"/><rect fill="#000000" height="10" width="10" x="432" y="380"/><rect fill="#000000" height="10" width="10" x="432" y="390"/><rect fill="#000000" height="10" width="10" x="432" y="400"/><rect fill="#000000" height="10" width="10" x="432" y="440"/><rect fill="#000000" height="10" width="10" x="442" y="120"/><rect fill="#000000" height="10" width="10" x="442" y="130"/><rect fill="#000000" height="10" width="10" x="442" y="140"/><rect fill="#000000" height="10" width="10" x="442" y="170"/><rect fill="#000000" height="10" width="10" x="442" y="180"/><rect fill="#000000" height="10" width="10" x="442" y="200"/><rect fill="#000000" height="10" width="10" x="442" y="210"/><rect fill="#000000" height="10" width="10" x="442" y="250"/><rect fill="#000000" height="10" width="10" x="442" y="260"/><rect fill="#000000" height="10" width="10" x="442" y="290"/><rect fill="#000000" height="10" width="10" x="442" y="300"/><rect fill="#000000" height="10" width="10" x="442" y="360"/><rect fill="#000000" height="10" width="10" x="442" y="400"/><rect fill="#000000" height="10" width="10" x="442" y="410"/><rect fill="#000000" height="10" width="10" x="442" y="430"/><rect fill="#000000" height="10" width="10" x="442" y="440"/><rect fill="#000000" height="10" width="10" x="452" y="40"/><rect fill="#000000" height="10" width="10" x="452" y="50"/><rect fill="#000000" height="10" width="10" x="452" y="60"/><rect fill="#000000" height="10" width="10" x="452" y="70"/><rect fill="#000000" height="10" width="10" x="452" y="80"/><rect fill="#000000" height="10" width="10" x="452" y="90"/><rect fill="#000000" height="10" width="10" x="452" y="100"/><rect fill="#000000" height="10" width="10" x="452" y="160"/><rect fill="#000000" height="10" width="10" x="452" y="170"/><rect fill="#000000" height="10" width="10" x="452" y="180"/><rect fill="#000000" height="10" width="10" x="452" y="190"/><rect fill="#000000" height="10" width="10" x="452" y="250"/><rect fill="#000000" height="10" width="10" x="452" y="270"/><rect fill="#000000" height="10" width="10" x="452" y="280"/><rect fill="#000000" height="10" width="10" x="452" y="300"/><rect fill="#000000" height="10" width="10" x="452" y="310"/><rect fill="#000000" height="10" width="10" x="452" y="320"/><rect fill="#000000" height="10" width="10" x="452" y="330"/><rect fill="#000000" height="10" width="10" x="452" y="350"/><rect fill="#000000" height="10" width="10" x="452" y="360"/><rect fill="#000000" height="10" width="10" x="452" y="380"/><rect fill="#000000" height="10" width="10" x="452" y="400"/><rect fill="#000000" height="10" width="10" x="452" y="410"/><rect fill="#000000" height="10" width="10" x="452" y="440"/><rect fill="#000000" height="10" width="10" x="462" y="40"/><rect fill="#000000" height="10" width="10" x="462" y="100"/><rect fill="#000000" height="10" width="10" x="462" y="150"/><rect fill="#000000" height="10" width="10" x="462" y="170"/><rect fill="#000000" height="10" width="10" x="462" y="190"/><rect fill="#000000" height="10" width="10" x="462" y="210"/><rect fill="#000000" height="10" width="10" x="462" y="220"/><rect fill="#000000" height="10" width="10" x="462" y="250"/><rect fill="#000000" height="10" width="10" x="462" y="260"/><rect fill="#000000" height="10" width="10" x="462" y="270"/><rect fill="#000000" height="10" width="10" x="462" y="310"/><rect fill="#000000" height="10" width="10" x="462" y="320"/><rect fill="#000000" height="10" width="10" x="462" y="330"/><rect fill="#000000" height="10" width="10" x="462" y="340"/><rect fill="#000000" height="10" width="10" x="462" y="360"/><rect fill="#000000" height="10" width="10" x="462" y="400"/><rect fill="#000000" height="10" width="10" x="462" y="420"/><rect fill="#000000" height="10" width="10" x="472" y="40"/><rect fill="#000000" height="10" width="10" x="472" y="60"/><rect fill="#000000" height="10" width="10" x="472" y="70"/><rect fill="#000000" height="10" width="10" x="472" y="80"/><rect fill="#000000" height="10" width="10" x="472" y="100"/><rect fill="#000000" height="10" width="10" x="472" y="120"/><rect fill="#000000" height="10" width="10" x="472" y="140"/><rect fill="#000000" height="10" width="10" x="472" y="160"/><rect fill="#000000" height="10" width="10" x="472" y="170"/><rect fill="#000000" height="10" width="10" x="472" y="190"/><rect fill="#000000" height="10" width="10" x="472" y="200"/><rect fill="#000000" height="10" width="10" x="472" y="220"/><rect fill="#000000" height="10" width="10" x="472" y="250"/><rect fill="#000000" height="10" width="10" x="472" y="260"/><rect fill="#000000" height="10" width="10" x="472" y="280"/><rect fill="#000000" height="10" width="10" x="472" y="300"/><rect fill="#000000" height="10" width="10" x="472" y="310"/><rect fill="#000000" height="10" width="10" x="472" y="360"/><rect fill="#000000" height="10" width="10" x="472" y="370"/><rect fill="#000000" height="10" width="10" x="472" y="380"/><rect fill="#000000" height="10" width="10" x="472" y="390"/><rect fill="#000000" height="10" width="10" x="472" y="400"/><rect fill="#000000" height="10" width="10" x="472" y="410"/><rect fill="#000000" height="10" width="10" x="472" y="420"/><rect fill="#000000" height="10" width="10" x="482" y="40"/><rect fill="#000000" height="10" width="10" x="482" y="60"/><rect fill="#000000" height="10" width="10" x="482" y="70"/><rect fill="#000000" height="10" width="10" x="482" y="80"/><rect fill="#000000" height="10" width="10" x="482" y="100"/><rect fill="#000000" height="10" width="10" x="482" y="120"/><rect fill="#000000" height="10" width="10" x="482" y="130"/><rect fill="#000000" height="10" width="10" x="482" y="170"/><rect fill="#000000" height="10" width="10" x="482" y="180"/><rect fill="#000000" height="10" width="10" x="482" y="190"/><rect fill="#000000" height="10" width="10" x="482" y="200"/><rect fill="#000000" height="10" width="10" x="482" y="230"/><rect fill="#000000" height="10" width="10" x="482" y="240"/><rect fill="#000000" height="10" width="10" x="482" y="250"/><rect fill="#000000" height="10" width="10" x="482" y="260"/><rect fill="#000000" height="10" width="10" x="482" y="270"/><rect fill="#000000" height="10" width="10" x="482" y="280"/><rect fill="#000000" height="10" width="10" x="482" y="290"/><rect fill="#000000" height="10" width="10" x="482" y="300"/><rect fill="#000000" height="10" width="10" x="482" y="370"/><rect fill="#000000" height="10" width="10" x="482" y="410"/><rect fill="#000000" height="10" width="10" x="492" y="40"/><rect fill="#000000" height="10" width="10" x="492" y="60"/><rect fill="#000000" height="10" width="10" x="492" y="70"/><rect fill="#000000" height="10" width="10" x="492" y="80"/><rect fill="#000000" height="10" width="10" x="492" y="100"/><rect fill="#000000" height="10" width="10" x="492" y="120"/><rect fill="#000000" height="10" width="10" x="492" y="140"/><rect fill="#000000" height="10" width="10" x="492" y="150"/><rect fill="#000000" height="10" width="10" x="492" y="170"/><rect fill="#000000" height="10" width="10" x="492" y="200"/><rect fill="#000000" height="10" width="10" x="492" y="230"/><rect fill="#000000" height="10" width="10" x="492" y="240"/><rect fill="#000000" height="10" width="10" x="492" y="280"/><rect fill="#000000" height="10" width="10" x="492" y="290"/><rect fill="#000000" height="10" width="10" x="492" y="300"/><rect fill="#000000" height="10" width="10" x="492" y="350"/><rect fill="#000000" height="10" width="10" x="492" y="360"/><rect fill="#000000" height="10" width="10" x="492" y="400"/><rect fill="#000000" height="10" width="10" x="492" y="410"/><rect fill="#000000" height="10" width="10" x="492" y="430"/><rect fill="#000000" height="10" width="10" x="492" y="440"/><rect fill="#000000" height="10" width="10" x="502" y="40"/><rect fill="#000000" height="10" width="10" x="502" y="100"/><rect fill="#000000" height="10" width="10" x="502" y="130"/><rect fill="#000000" height="10" width="10" x="502" y="180"/><rect fill="#000000" height="10" width="10" x="502" y="190"/><rect fill="#000000" height="10" width="10" x="502" y="200"/><rect fill="#000000" height="10" width="10" x="502" y="210"/><rect fill="#000000" height="10" width="10" x="502" y="220"/><rect fill="#000000" height="10" width="10" x="502" y="240"/><rect fill="#000000" height="10" width="10" x="502" y="250"/><rect fill="#000000" height="10" width="10" x="502" y="280"/><rect fill="#000000" height="10" width="10" x="502" y="290"/><rect fill="#000000" height="10" width="10" x="502" y="300"/><rect fill="#000000" height="10" width="10" x="502" y="370"/><rect fill="#000000" height="10" width="10" x="502" y="410"/><rect fill="#000000" height="10" width="10" x="502" y="440"/><rect fill="#000000" height="10" width="10" x="512" y="40"/><rect fill="#000000" height="10" width="10" x="512" y="50"/><rect fill="#000000" height="10" width="10" x="512" y="60"/><rect fill="#000000" height="10" width="10" x="512" y="70"/><rect fill="#000000" height="10" width="10" x="512" y="80"/><rect fill="#000000" height="10" width="10" x="512" y="90"/><rect fill="#000000" height="10" width="10" x="512" y="100"/><rect fill="#000000" height="10" width="10" x="512" y="120"/><rect fill="#000000" height="10" width="10" x="512" y="130"/><rect fill="#000000" height="10" width="10" x="512" y="180"/><rect fill="#000000" height="10" width="10" x="512" y="210"/><rect fill="#000000" height="10" width="10" x="512" y="240"/><rect fill="#000000" height="10" width="10" x="512" y="270"/><rect fill="#000000" height="10" width="10" x="512" y="280"/><rect fill="#000000" height="10" width="10" x="512" y="290"/><rect fill="#000000" height="10" width="10" x="512" y="300"/><rect fill="#000000" height="10" width="10" x="512" y="310"/><rect fill="#000000" height="10" width="10" x="512" y="330"/><rect fill="#000000" height="10" width="10" x="512" y="350"/><rect fill="#000000" height="10" width="10" x="512" y="370"/><rect fill="#000000" height="10" width="10" x="512" y="390"/><rect fill="#000000" height="10" width="10" x="512" y="420"/><rect fill="#000000" height="10" width="10" x="512" y="430"/></svg>