<?xml version="1.0" encoding="UTF-8" standalone="no"?><svg height="429" viewBox="0 0 592 429" width="592" xmlns="http://www.w3.org/2000/svg"><g fill="black" stroke="none"/><rect fill="#000000" height="13" width="13" x="133" y="52"/><rect fill="#000000" height="13" width="13" x="133" y="65"/><rect fill="#000000" height="13" width="13" x="133" y="78"/><rect fill="#000000" height="13" width="13" x="133" y="91"/><rect fill="#000000" height="13" width="13" x="133" y="104"/><rect fill="#000000" height="13" width="13" x="133" y="117"/><rect fill="#000000" height="13" width="13" x="133" y="130"/><rect fill="#000000" height="13" width="13" x="133" y="156"/><rect fill="#000000" height="13" width="13" x="133" y="169"/><rect fill="#000000" height="13" width="13" x="133" y="195"/><rect fill="#000000" height="13" width="13" x="133" y="208"/><rect fill="#000000" height="13" width="13" x="133" y="221"/><rect fill="#000000" height="13" width="13" x="133" y="234"/><rect fill="#000000" height="13" width="13" x="133" y="247"/><rect fill="#000000" height="13" width="13" x="133" y="260"/><rect fill="#000000" height="13" width="13" x="133" y="286"/><rect fill="#000000" height="13" width="13" x="133" y="299"/><rect fill="#000000" height="13" width="13" x="133" y="312"/><rect fill="#000000" height="13" width="13" x="133" y="325"/><rect fill="#000000" height="13" width="13" x="133" y="338"/><rect fill="#000000" height="13" width="13" x="133" y="351"/><rect fill="#000000" height="13" width="13" x="133" y="364"/><rect fill="#000000" height="13" width="13" x="146" y="52"/><rect fill="#000000" height="13" width="13" x="146" y="130"/><rect fill="#000000" height="13" width="13" x="146" y="156"/><rect fill="#000000" height="13" width="13" x="146" y="169"/><rect fill="#000000" height="13" width="13" x="146" y="286"/><rect fill="#000000" height="13" width="13" x="146" y="364"/><rect fill="#000000" height="13" width="13" x="159" y="52"/><rect fill="#000000" height="13" width="13" x="159" y="78"/><rect fill="#000000" height="13" width="13" x="159" y="91"/><rect fill="#000000" height="13" width="13" x="159" y="104"/><rect fill="#000000" height="13" width="13" x="159" y="130"/><rect fill="#000000" height="13" width="13" x="159" y="156"/><rect fill="#000000" height="13" width="13" x="159" y="169"/><rect fill="#000000" height="13" width="13" x="159" y="182"/><rect fill="#000000" height="13" width="13" x="159" y="208"/><rect fill="#000000" height="13" width="13" x="159" y="221"/><rect fill="#000000" height="13" width="13" x="159" y="260"/><rect fill="#000000" height="13" width="13" x="159" y="286"/><rect fill="#000000" height="13" width="13" x="159" y="312"/><rect fill="#000000" height="13" width="13" x="159" y="325"/><rect fill="#000000" height="13" width="13" x="159" y="338"/><rect fill="#000000" height="13" width="13" x="159" y="364"/><rect fill="#000000" height="13" width="13" x="172" y="52"/><rect fill="#000000" height="13" width="13" x="172" y="78"/><rect fill="#000000" height="13" width="13" x="172" y="91"/><rect fill="#000000" height="13" width="13" x="172" y="104"/><rect fill="#000000" height="13" width="13" x="172" y="130"/><rect fill="#000000" height="13" width="13" x="172" y="156"/><rect fill="#000000" height="13" width="13" x="172" y="169"/><rect fill="#000000" height="13" width="13" x="172" y="221"/><rect fill="#000000" height="13" width="13" x="172" y="234"/><rect fill="#000000" height="13" width="13" x="172" y="247"/><rect fill="#000000" height="13" width="13" x="172" y="286"/><rect fill="#000000" height="13" width="13" x="172" y="312"/><rect fill="#000000" height="13" width="13" x="172" y="325"/><rect fill="#000000" height="13" width="13" x="172" y="338"/><rect fill="#000000" height="13" width="13" x="172" y="364"/><rect fill="#000000" height="13" width="13" x="185" y="52"/><rect fill="#000000" height="13" width="13" x="185" y="78"/><rect fill="#000000" height="13" width="13" x="185" y="91"/><rect fill="#000000" height="13" width="13" x="185" y="104"/><rect fill="#000000" height="13" width="13" x="185" y="130"/><rect fill="#000000" height="13" width="13" x="185" y="156"/><rect fill="#000000" height="13" width="13" x="185" y="169"/><rect fill="#000000" height="13" width="13" x="185" y="182"/><rect fill="#000000" height="13" width="13" x="185" y="234"/><rect fill="#000000" height="13" width="13" x="185" y="260"/><rect fill="#000000" height="13" width="13" x="185" y="286"/><rect fill="#000000" height="13" width="13" x="185" y="312"/><rect fill="#000000" height="13" width="13" x="185" y="325"/><rect fill="#000000" height="13" width="13" x="185" y="338"/><rect fill="#000000" height="13" width="13" x="185" y="364"/><rect fill="#000000" height="13" width="13" x="198" y="52"/><rect fill="#000000" height="13" width="13" x="198" y="130"/><rect fill="#000000" height="13" width="13" x="198" y="182"/><rect fill="#000000" height="13" width="13" x="198" y="195"/><rect fill="#000000" height="13" width="13" x="198" y="221"/><rect fill="#000000" height="13" width="13" x="198" y="234"/><rect fill="#000000" height="13" width="13" x="198" y="247"/><rect fill="#000000" height="13" width="13" x="198" y="286"/><rect fill="#000000" height="13" width="13" x="198" y="364"/><rect fill="#000000" height="13" width="13" x="211" y="52"/><rect fill="#000000" height="13" width="13" x="211" y="65"/><rect fill="#000000" height="13" width="13" x="211" y="78"/><rect fill="#000000" height="13" width="13" x="211" y="91"/><rect fill="#000000" height="13" width="13" x="211" y="104"/><rect fill="#000000" height="13" width="13" x="211" y="117"/><rect fill="#000000" height="13" width="13" x="211" y="130"/><rect fill="#000000" height="13" width="13" x="211" y="156"/><rect fill="#000000" height="13" width="13" x="211" y="182"/><rect fill="#000000" height="13" width="13" x="211" y="208"/><rect fill="#000000" height="13" width="13" x="211" y="234"/><rect fill="#000000" height="13" width="13" x="211" y="260"/><rect fill="#000000" height="13" width="13" x="211" y="286"/><rect fill="#000000" height="13" width="13" x="211" y="299"/><rect fill="#000000" height="13" width="13" x="211" y="312"/><rect fill="#000000" height="13" width="13" x="211" y="325"/><rect fill="#000000" height="13" width="13" x="211" y="338"/><rect fill="#000000" height="13" width="13" x="211" y="351"/><rect fill="#000000" height="13" width="13" x="211" y="364"/><rect fill="#000000" height="13" width="13" x="224" y="156"/><rect fill="#000000" height="13" width="13" x="224" y="182"/><rect fill="#000000" height="13" width="13" x="224" y="195"/><rect fill="#000000" height="13" width="13" x="224" y="208"/><rect fill="#000000" height="13" width="13" x="224" y="234"/><rect fill="#000000" height="13" width="13" x="224" y="260"/><rect fill="#000000" height="13" width="13" x="237" y="65"/><rect fill="#000000" height="13" width="13" x="237" y="91"/><rect fill="#000000" height="13" width="13" x="237" y="117"/><rect fill="#000000" height="13" width="13" x="237" y="130"/><rect fill="#000000" height="13" width="13" x="237" y="156"/><rect fill="#000000" height="13" width="13" x="237" y="169"/><rect fill="#000000" height="13" width="13" x="237" y="182"/><rect fill="#000000" height="13" width="13" x="237" y="234"/><rect fill="#000000" height="13" width="13" x="237" y="273"/><rect fill="#000000" height="13" width="13" x="237" y="286"/><rect fill="#000000" height="13" width="13" x="237" y="312"/><rect fill="#000000" height="13" width="13" x="237" y="325"/><rect fill="#000000" height="13" width="13" x="237" y="338"/><rect fill="#000000" height="13" width="13" x="237" y="351"/><rect fill="#000000" height="13" width="13" x="237" y="364"/><rect fill="#000000" height="13" width="13" x="250" y="52"/><rect fill="#000000" height="13" width="13" x="250" y="65"/><rect fill="#000000" height="13" width="13" x="250" y="78"/><rect fill="#000000" height="13" width="13" x="250" y="91"/><rect fill="#000000" height="13" width="13" x="250" y="156"/><rect fill="#000000" height="13" width="13" x="250" y="169"/><rect fill="#000000" height="13" width="13" x="250" y="182"/><rect fill="#000000" height="13" width="13" x="250" y="195"/><rect fill="#000000" height="13" width="13" x="250" y="208"/><rect fill="#000000" height="13" width="13" x="250" y="234"/><rect fill="#000000" height="13" width="13" x="250" y="247"/><rect fill="#000000" height="13" width="13" x="250" y="260"/><rect fill="#000000" height="13" width="13" x="250" y="312"/><rect fill="#000000" height="13" width="13" x="250" y="338"/><rect fill="#000000" height="13" width="13" x="250" y="364"/><rect fill="#000000" height="13" width="13" x="263" y="78"/><rect fill="#000000" height="13" width="13" x="263" y="104"/><rect fill="#000000" height="13" width="13" x="263" y="117"/><rect fill="#000000" height="13" width="13" x="263" y="130"/><rect fill="#000000" height="13" width="13" x="263" y="156"/><rect fill="#000000" height="13" width="13" x="263" y="195"/><rect fill="#000000" height="13" width="13" x="263" y="221"/><rect fill="#000000" height="13" width="13" x="263" y="234"/><rect fill="#000000" height="13" width="13" x="263" y="260"/><rect fill="#000000" height="13" width="13" x="263" y="273"/><rect fill="#000000" height="13" width="13" x="263" y="338"/><rect fill="#000000" height="13" width="13" x="276" y="65"/><rect fill="#000000" height="13" width="13" x="276" y="78"/><rect fill="#000000" height="13" width="13" x="276" y="91"/><rect fill="#000000" height="13" width="13" x="276" y="182"/><rect fill="#000000" height="13" width="13" x="276" y="195"/><rect fill="#000000" height="13" width="13" x="276" y="208"/><rect fill="#000000" height="13" width="13" x="276" y="286"/><rect fill="#000000" height="13" width="13" x="276" y="299"/><rect fill="#000000" height="13" width="13" x="276" y="338"/><rect fill="#000000" height="13" width="13" x="276" y="351"/><rect fill="#000000" height="13" width="13" x="289" y="65"/><rect fill="#000000" height="13" width="13" x="289" y="104"/><rect fill="#000000" height="13" width="13" x="289" y="130"/><rect fill="#000000" height="13" width="13" x="289" y="143"/><rect fill="#000000" height="13" width="13" x="289" y="156"/><rect fill="#000000" height="13" width="13" x="289" y="182"/><rect fill="#000000" height="13" width="13" x="289" y="208"/><rect fill="#000000" height="13" width="13" x="289" y="221"/><rect fill="#000000" height="13" width="13" x="289" y="234"/><rect fill="#000000" height="13" width="13" x="289" y="247"/><rect fill="#000000" height="13" width="13" x="289" y="299"/><rect fill="#000000" height="13" width="13" x="289" y="351"/><rect fill="#000000" height="13" width="13" x="302" y="65"/><rect fill="#000000" height="13" width="13" x="302" y="78"/><rect fill="#000000" height="13" width="13" x="302" y="91"/><rect fill="#000000" height="13" width="13" x="302" y="117"/><rect fill="#000000" height="13" width="13" x="302" y="143"/><rect fill="#000000" height="13" width="13" x="302" y="182"/><rect fill="#000000" height="13" width="13" x="302" y="286"/><rect fill="#000000" height="13" width="13" x="302" y="299"/><rect fill="#000000" height="13" width="13" x="302" y="312"/><rect fill="#000000" height="13" width="13" x="302" y="338"/><rect fill="#000000" height="13" width="13" x="302" y="364"/><rect fill="#000000" height="13" width="13" x="315" y="52"/><rect fill="#000000" height="13" width="13" x="315" y="65"/><rect fill="#000000" height="13" width="13" x="315" y="104"/><rect fill="#000000" height="13" width="13" x="315" y="117"/><rect fill="#000000" height="13" width="13" x="315" y="130"/><rect fill="#000000" height="13" width="13" x="315" y="143"/><rect fill="#000000" height="13" width="13" x="315" y="182"/><rect fill="#000000" height="13" width="13" x="315" y="195"/><rect fill="#000000" height="13" width="13" x="315" y="208"/><rect fill="#000000" height="13" width="13" x="315" y="221"/><rect fill="#000000" height="13" width="13" x="315" y="234"/><rect fill="#000000" height="13" width="13" x="315" y="247"/><rect fill="#000000" height="13" width="13" x="315" y="286"/><rect fill="#000000" height="13" width="13" x="315" y="299"/><rect fill="#000000" height="13" width="13" x="315" y="338"/><rect fill="#000000" height="13" width="13" x="315" y="351"/><rect fill="#000000" height="13" width="13" x="315" y="364"/><rect fill="#000000" height="13" width="13" x="328" y="52"/><rect fill="#000000" height="13" width="13" x="328" y="91"/><rect fill="#000000" height="13" width="13" x="328" y="156"/><rect fill="#000000" height="13" width="13" x="328" y="169"/><rect fill="#000000" height="13" width="13" x="328" y="195"/><rect fill="#000000" height="13" width="13" x="328" y="208"/><rect fill="#000000" height="13" width="13" x="328" y="247"/><rect fill="#000000" height="13" width="13" x="328" y="260"/><rect fill="#000000" height="13" width="13" x="328" y="286"/><rect fill="#000000" height="13" width="13" x="328" y="299"/><rect fill="#000000" height="13" width="13" x="328" y="338"/><rect fill="#000000" height="13" width="13" x="328" y="364"/><rect fill="#000000" height="13" width="13" x="341" y="65"/><rect fill="#000000" height="13" width="13" x="341" y="78"/><rect fill="#000000" height="13" width="13" x="341" y="91"/><rect fill="#000000" height="13" width="13" x="341" y="104"/><rect fill="#000000" height="13" width="13" x="341" y="130"/><rect fill="#000000" height="13" width="13" x="341" y="169"/><rect fill="#000000" height="13" width="13" x="341" y="195"/><rect fill="#000000" height="13" width="13" x="341" y="247"/><rect fill="#000000" height="13" width="13" x="341" y="260"/><rect fill="#000000" height="13" width="13" x="341" y="273"/><rect fill="#000000" height="13" width="13" x="341" y="286"/><rect fill="#000000" height="13" width="13" x="341" y="299"/><rect fill="#000000" height="13" width="13" x="341" y="312"/><rect fill="#000000" height="13" width="13" x="341" y="325"/><rect fill="#000000" height="13" width="13" x="341" y="351"/><rect fill="#000000" height="13" width="13" x="354" y="156"/><rect fill="#000000" height="13" width="13" x="354" y="182"/><rect fill="#000000" height="13" width="13" x="354" y="208"/><rect fill="#000000" height="13" width="13" x="354" y="221"/><rect fill="#000000" height="13" width="13" x="354" y="234"/><rect fill="#000000" height="13" width="13" x="354" y="260"/><rect fill="#000000" height="13" width="13" x="354" y="312"/><rect fill="#000000" height="13" width="13" x="354" y="338"/><rect fill="#000000" height="13" width="13" x="354" y="364"/><rect fill="#000000" height="13" width="13" x="367" y="52"/><rect fill="#000000" height="13" width="13" x="367" y="65"/><rect fill="#000000" height="13" width="13" x="367" y="78"/><rect fill="#000000" height="13" width="13" x="367" y="91"/><rect fill="#000000" height="13" width="13" x="367" y="104"/><rect fill="#000000" height="13" width="13" x="367" y="117"/><rect fill="#000000" height="13" width="13" x="367" y="130"/><rect fill="#000000" height="13" width="13" x="367" y="169"/><rect fill="#000000" height="13" width="13" x="367" y="182"/><rect fill="#000000" height="13" width="13" x="367" y="234"/><rect fill="#000000" height="13" width="13" x="367" y="247"/><rect fill="#000000" height="13" width="13" x="367" y="260"/><rect fill="#000000" height="13" width="13" x="367" y="286"/><rect fill="#000000" height="13" width="13" x="367" y="312"/><rect fill="#000000" height="13" width="13" x="367" y="351"/><rect fill="#000000" height="13" width="13" x="380" y="52"/><rect fill="#000000" height="13" width="13" x="380" y="130"/><rect fill="#000000" height="13" width="13" x="380" y="156"/><rect fill="#000000" height="13" width="13" x="380" y="169"/><rect fill="#000000" height="13" width="13" x="380" y="195"/><rect fill="#000000" height="13" width="13" x="380" y="208"/><rect fill="#000000" height="13" width="13" x="380" y="221"/><rect fill="#000000" height="13" width="13" x="380" y="247"/><rect fill="#000000" height="13" width="13" x="380" y="260"/><rect fill="#000000" height="13" width="13" x="380" y="312"/><rect fill="#000000" height="13" width="13" x="380" y="351"/><rect fill="#000000" height="13" width="13" x="393" y="52"/><rect fill="#000000" height="13" width="13" x="393" y="78"/><rect fill="#000000" height="13" width="13" x="393" y="91"/><rect fill="#000000" height="13" width="13" x="393" y="104"/><rect fill="#000000" height="13" width="13" x="393" y="130"/><rect fill="#000000" height="13" width="13" x="393" y="169"/><rect fill="#000000" height="13" width="13" x="393" y="182"/><rect fill="#000000" height="13" width="13" x="393" y="208"/><rect fill="#000000" height="13" width="13" x="393" y="260"/><rect fill="#000000" height="13" width="13" x="393" y="273"/><rect fill="#000000" height="13" width="13" x="393" y="286"/><rect fill="#000000" height="13" width="13" x="393" y="299"/><rect fill="#000000" height="13" width="13" x="393" y="312"/><rect fill="#000000" height="13" width="13" x="393" y="325"/><rect fill="#000000" height="13" width="13" x="393" y="351"/><rect fill="#000000" height="13" width="13" x="406" y="52"/><rect fill="#000000" height="13" width="13" x="406" y="78"/><rect fill="#000000" height="13" width="13" x="406" y="91"/><rect fill="#000000" height="13" width="13" x="406" y="104"/><rect fill="#000000" height="13" width="13" x="406" y="130"/><rect fill="#000000" height="13" width="13" x="406" y="156"/><rect fill="#000000" height="13" width="13" x="406" y="182"/><rect fill="#000000" height="13" width="13" x="406" y="195"/><rect fill="#000000" height="13" width="13" x="406" y="234"/><rect fill="#000000" height="13" width="13" x="406" y="260"/><rect fill="#000000" height="13" width="13" x="406" y="286"/><rect fill="#000000" height="13" width="13" x="406" y="299"/><rect fill="#000000" height="13" width="13" x="406" y="325"/><rect fill="#000000" height="13" width="13" x="406" y="338"/><rect fill="#000000" height="13" width="13" x="406" y="351"/><rect fill="#000000" height="13" width="13" x="419" y="52"/><rect fill="#000000" height="13" width="13" x="419" y="78"/><rect fill="#000000" height="13" width="13" x="419" y="91"/><rect fill="#000000" height="13" width="13" x="419" y="104"/><rect fill="#000000" height="13" width="13" x="419" y="130"/><rect fill="#000000" height="13" width="13" x="419" y="182"/><rect fill="#000000" height="13" width="13" x="419" y="286"/><rect fill="#000000" height="13" width="13" x="419" y="338"/><rect fill="#000000" height="13" width="13" x="419" y="351"/><rect fill="#000000" height="13" width="13" x="419" y="364"/><rect fill="#000000" height="13" width="13" x="432" y="52"/><rect fill="#000000" height="13" width="13" x="432" y="130"/><rect fill="#000000" height="13" width="13" x="432" y="156"/><rect fill="#000000" height="13" width="13" x="432" y="195"/><rect fill="#000000" height="13" width="13" x="432" y="208"/><rect fill="#000000" height="13" width="13" x="432" y="247"/><rect fill="#000000" height="13" width="13" x="432" y="286"/><rect fill="#000000" height="13" width="13" x="432" y="325"/><rect fill="#000000" height="13" width="13" x="432" y="351"/><rect fill="#000000" height="13" width="13" x="432" y="364"/><rect fill="#000000" height="13" width="13" x="445" y="52"/><rect fill="#000000" height="13" width="13" x="445" y="65"/><rect fill="#000000" height="13" width="13" x="445" y="78"/><rect fill="#000000" height="13" width="13" x="445" y="91"/><rect fill="#000000" height="13" width="13" x="445" y="104"/><rect fill="#000000" height="13" width="13" x="445" y="117"/><rect fill="#000000" height="13" width="13" x="445" y="130"/><rect fill="#000000" height="13" width="13" x="445" y="169"/><rect fill="#000000" height="13" width="13" x="445" y="208"/><rect fill="#000000" height="13" width="13" x="445" y="221"/><rect fill="#000000" height="13" width="13" x="445" y="247"/><rect fill="#000000" height="13" width="13" x="445" y="260"/><rect fill="#000000" height="13" width="13" x="445" y="273"/><rect fill="#000000" height="13" width="13" x="445" y="286"/><rect fill="#000000" height="13" width="13" x="445" y="325"/><rect fill="#000000" height="13" width="13" x="445" y="338"/><rect fill="#000000" height="13" width="13" x="445" y="364"/></svg>