<?xml version="1.0" encoding="UTF-8" standalone="no"?><svg height="462" viewBox="0 0 597 462" width="597" xmlns="http://www.w3.org/2000/svg"><g fill="black" stroke="none"/><rect fill="#000000" height="14" width="14" x="123" y="56"/><rect fill="#000000" height="14" width="14" x="123" y="70"/><rect fill="#000000" height="14" width="14" x="123" y="84"/><rect fill="#000000" height="14" width="14" x="123" y="98"/><rect fill="#000000" height="14" width="14" x="123" y="112"/><rect fill="#000000" height="14" width="14" x="123" y="126"/><rect fill="#000000" height="14" width="14" x="123" y="140"/><rect fill="#000000" height="14" width="14" x="123" y="168"/><rect fill="#000000" height="14" width="14" x="123" y="210"/><rect fill="#000000" height="14" width="14" x="123" y="224"/><rect fill="#000000" height="14" width="14" x="123" y="238"/><rect fill="#000000" height="14" width="14" x="123" y="252"/><rect fill="#000000" height="14" width="14" x="123" y="266"/><rect fill="#000000" height="14" width="14" x="123" y="280"/><rect fill="#000000" height="14" width="14" x="123" y="308"/><rect fill="#000000" height="14" width="14" x="123" y="322"/><rect fill="#000000" height="14" width="14" x="123" y="336"/><rect fill="#000000" height="14" width="14" x="123" y="350"/><rect fill="#000000" height="14" width="14" x="123" y="364"/><rect fill="#000000" height="14" width="14" x="123" y="378"/><rect fill="#000000" height="14" width="14" x="123" y="392"/><rect fill="#000000" height="14" width="14" x="137" y="56"/><rect fill="#000000" height="14" width="14" x="137" y="140"/><rect fill="#000000" height="14" width="14" x="137" y="168"/><rect fill="#000000" height="14" width="14" x="137" y="210"/><rect fill="#000000" height="14" width="14" x="137" y="224"/><rect fill="#000000" height="14" width="14" x="137" y="238"/><rect fill="#000000" height="14" width="14" x="137" y="308"/><rect fill="#000000" height="14" width="14" x="137" y="392"/><rect fill="#000000" height="14" width="14" x="151" y="56"/><rect fill="#000000" height="14" width="14" x="151" y="84"/><rect fill="#000000" height="14" width="14" x="151" y="98"/><rect fill="#000000" height="14" width="14" x="151" y="112"/><rect fill="#000000" height="14" width="14" x="151" y="140"/><rect fill="#000000" height="14" width="14" x="151" y="168"/><rect fill="#000000" height="14" width="14" x="151" y="182"/><rect fill="#000000" height="14" width="14" x="151" y="196"/><rect fill="#000000" height="14" width="14" x="151" y="238"/><rect fill="#000000" height="14" width="14" x="151" y="252"/><rect fill="#000000" height="14" width="14" x="151" y="280"/><rect fill="#000000" height="14" width="14" x="151" y="308"/><rect fill="#000000" height="14" width="14" x="151" y="336"/><rect fill="#000000" height="14" width="14" x="151" y="350"/><rect fill="#000000" height="14" width="14" x="151" y="364"/><rect fill="#000000" height="14" width="14" x="151" y="392"/><rect fill="#000000" height="14" width="14" x="165" y="56"/><rect fill="#000000" height="14" width="14" x="165" y="84"/><rect fill="#000000" height="14" width="14" x="165" y="98"/><rect fill="#000000" height="14" width="14" x="165" y="112"/><rect fill="#000000" height="14" width="14" x="165" y="140"/><rect fill="#000000" height="14" width="14" x="165" y="168"/><rect fill="#000000" height="14" width="14" x="165" y="182"/><rect fill="#000000" height="14" width="14" x="165" y="224"/><rect fill="#000000" height="14" width="14" x="165" y="238"/><rect fill="#000000" height="14" width="14" x="165" y="266"/><rect fill="#000000" height="14" width="14" x="165" y="280"/><rect fill="#000000" height="14" width="14" x="165" y="308"/><rect fill="#000000" height="14" width="14" x="165" y="336"/><rect fill="#000000" height="14" width="14" x="165" y="350"/><rect fill="#000000" height="14" width="14" x="165" y="364"/><rect fill="#000000" height="14" width="14" x="165" y="392"/><rect fill="#000000" height="14" width="14" x="179" y="56"/><rect fill="#000000" height="14" width="14" x="179" y="84"/><rect fill="#000000" height="14" width="14" x="179" y="98"/><rect fill="#000000" height="14" width="14" x="179" y="112"/><rect fill="#000000" height="14" width="14" x="179" y="140"/><rect fill="#000000" height="14" width="14" x="179" y="168"/><rect fill="#000000" height="14" width="14" x="179" y="182"/><rect fill="#000000" height="14" width="14" x="179" y="252"/><rect fill="#000000" height="14" width="14" x="179" y="308"/><rect fill="#000000" height="14" width="14" x="179" y="336"/><rect fill="#000000" height="14" width="14" x="179" y="350"/><rect fill="#000000" height="14" width="14" x="179" y="364"/><rect fill="#000000" height="14" width="14" x="179" y="392"/><rect fill="#000000" height="14" width="14" x="193" y="56"/><rect fill="#000000" height="14" width="14" x="193" y="140"/><rect fill="#000000" height="14" width="14" x="193" y="182"/><rect fill="#000000" height="14" width="14" x="193" y="196"/><rect fill="#000000" height="14" width="14" x="193" y="224"/><rect fill="#000000" height="14" width="14" x="193" y="266"/><rect fill="#000000" height="14" width="14" x="193" y="280"/><rect fill="#000000" height="14" width="14" x="193" y="308"/><rect fill="#000000" height="14" width="14" x="193" y="392"/><rect fill="#000000" height="14" width="14" x="207" y="56"/><rect fill="#000000" height="14" width="14" x="207" y="70"/><rect fill="#000000" height="14" width="14" x="207" y="84"/><rect fill="#000000" height="14" width="14" x="207" y="98"/><rect fill="#000000" height="14" width="14" x="207" y="112"/><rect fill="#000000" height="14" width="14" x="207" y="126"/><rect fill="#000000" height="14" width="14" x="207" y="140"/><rect fill="#000000" height="14" width="14" x="207" y="168"/><rect fill="#000000" height="14" width="14" x="207" y="196"/><rect fill="#000000" height="14" width="14" x="207" y="224"/><rect fill="#000000" height="14" width="14" x="207" y="252"/><rect fill="#000000" height="14" width="14" x="207" y="280"/><rect fill="#000000" height="14" width="14" x="207" y="308"/><rect fill="#000000" height="14" width="14" x="207" y="322"/><rect fill="#000000" height="14" width="14" x="207" y="336"/><rect fill="#000000" height="14" width="14" x="207" y="350"/><rect fill="#000000" height="14" width="14" x="207" y="364"/><rect fill="#000000" height="14" width="14" x="207" y="378"/><rect fill="#000000" height="14" width="14" x="207" y="392"/><rect fill="#000000" height="14" width="14" x="221" y="168"/><rect fill="#000000" height="14" width="14" x="221" y="182"/><rect fill="#000000" height="14" width="14" x="221" y="252"/><rect fill="#000000" height="14" width="14" x="235" y="70"/><rect fill="#000000" height="14" width="14" x="235" y="98"/><rect fill="#000000" height="14" width="14" x="235" y="126"/><rect fill="#000000" height="14" width="14" x="235" y="140"/><rect fill="#000000" height="14" width="14" x="235" y="168"/><rect fill="#000000" height="14" width="14" x="235" y="196"/><rect fill="#000000" height="14" width="14" x="235" y="224"/><rect fill="#000000" height="14" width="14" x="235" y="252"/><rect fill="#000000" height="14" width="14" x="235" y="280"/><rect fill="#000000" height="14" width="14" x="235" y="294"/><rect fill="#000000" height="14" width="14" x="235" y="308"/><rect fill="#000000" height="14" width="14" x="235" y="336"/><rect fill="#000000" height="14" width="14" x="235" y="350"/><rect fill="#000000" height="14" width="14" x="235" y="364"/><rect fill="#000000" height="14" width="14" x="235" y="378"/><rect fill="#000000" height="14" width="14" x="235" y="392"/><rect fill="#000000" height="14" width="14" x="249" y="56"/><rect fill="#000000" height="14" width="14" x="249" y="70"/><rect fill="#000000" height="14" width="14" x="249" y="84"/><rect fill="#000000" height="14" width="14" x="249" y="98"/><rect fill="#000000" height="14" width="14" x="249" y="168"/><rect fill="#000000" height="14" width="14" x="249" y="182"/><rect fill="#000000" height="14" width="14" x="249" y="196"/><rect fill="#000000" height="14" width="14" x="249" y="210"/><rect fill="#000000" height="14" width="14" x="249" y="224"/><rect fill="#000000" height="14" width="14" x="249" y="238"/><rect fill="#000000" height="14" width="14" x="249" y="294"/><rect fill="#000000" height="14" width="14" x="249" y="308"/><rect fill="#000000" height="14" width="14" x="249" y="322"/><rect fill="#000000" height="14" width="14" x="249" y="364"/><rect fill="#000000" height="14" width="14" x="249" y="378"/><rect fill="#000000" height="14" width="14" x="263" y="84"/><rect fill="#000000" height="14" width="14" x="263" y="112"/><rect fill="#000000" height="14" width="14" x="263" y="126"/><rect fill="#000000" height="14" width="14" x="263" y="140"/><rect fill="#000000" height="14" width="14" x="263" y="168"/><rect fill="#000000" height="14" width="14" x="263" y="210"/><rect fill="#000000" height="14" width="14" x="263" y="238"/><rect fill="#000000" height="14" width="14" x="263" y="252"/><rect fill="#000000" height="14" width="14" x="263" y="266"/><rect fill="#000000" height="14" width="14" x="263" y="294"/><rect fill="#000000" height="14" width="14" x="263" y="336"/><rect fill="#000000" height="14" width="14" x="263" y="350"/><rect fill="#000000" height="14" width="14" x="277" y="70"/><rect fill="#000000" height="14" width="14" x="277" y="84"/><rect fill="#000000" height="14" width="14" x="277" y="98"/><rect fill="#000000" height="14" width="14" x="277" y="196"/><rect fill="#000000" height="14" width="14" x="277" y="210"/><rect fill="#000000" height="14" width="14" x="277" y="224"/><rect fill="#000000" height="14" width="14" x="277" y="308"/><rect fill="#000000" height="14" width="14" x="277" y="322"/><rect fill="#000000" height="14" width="14" x="277" y="364"/><rect fill="#000000" height="14" width="14" x="277" y="378"/><rect fill="#000000" height="14" width="14" x="291" y="70"/><rect fill="#000000" height="14" width="14" x="291" y="112"/><rect fill="#000000" height="14" width="14" x="291" y="140"/><rect fill="#000000" height="14" width="14" x="291" y="154"/><rect fill="#000000" height="14" width="14" x="291" y="168"/><rect fill="#000000" height="14" width="14" x="291" y="196"/><rect fill="#000000" height="14" width="14" x="291" y="224"/><rect fill="#000000" height="14" width="14" x="291" y="238"/><rect fill="#000000" height="14" width="14" x="291" y="252"/><rect fill="#000000" height="14" width="14" x="291" y="266"/><rect fill="#000000" height="14" width="14" x="291" y="322"/><rect fill="#000000" height="14" width="14" x="291" y="378"/><rect fill="#000000" height="14" width="14" x="305" y="70"/><rect fill="#000000" height="14" width="14" x="305" y="126"/><rect fill="#000000" height="14" width="14" x="305" y="196"/><rect fill="#000000" height="14" width="14" x="305" y="210"/><rect fill="#000000" height="14" width="14" x="305" y="266"/><rect fill="#000000" height="14" width="14" x="305" y="280"/><rect fill="#000000" height="14" width="14" x="305" y="322"/><rect fill="#000000" height="14" width="14" x="305" y="336"/><rect fill="#000000" height="14" width="14" x="305" y="364"/><rect fill="#000000" height="14" width="14" x="305" y="392"/><rect fill="#000000" height="14" width="14" x="319" y="70"/><rect fill="#000000" height="14" width="14" x="319" y="112"/><rect fill="#000000" height="14" width="14" x="319" y="140"/><rect fill="#000000" height="14" width="14" x="319" y="154"/><rect fill="#000000" height="14" width="14" x="319" y="182"/><rect fill="#000000" height="14" width="14" x="319" y="210"/><rect fill="#000000" height="14" width="14" x="319" y="238"/><rect fill="#000000" height="14" width="14" x="319" y="252"/><rect fill="#000000" height="14" width="14" x="319" y="266"/><rect fill="#000000" height="14" width="14" x="319" y="308"/><rect fill="#000000" height="14" width="14" x="319" y="336"/><rect fill="#000000" height="14" width="14" x="319" y="364"/><rect fill="#000000" height="14" width="14" x="319" y="378"/><rect fill="#000000" height="14" width="14" x="319" y="392"/><rect fill="#000000" height="14" width="14" x="333" y="56"/><rect fill="#000000" height="14" width="14" x="333" y="70"/><rect fill="#000000" height="14" width="14" x="333" y="98"/><rect fill="#000000" height="14" width="14" x="333" y="112"/><rect fill="#000000" height="14" width="14" x="333" y="154"/><rect fill="#000000" height="14" width="14" x="333" y="168"/><rect fill="#000000" height="14" width="14" x="333" y="224"/><rect fill="#000000" height="14" width="14" x="333" y="238"/><rect fill="#000000" height="14" width="14" x="333" y="280"/><rect fill="#000000" height="14" width="14" x="333" y="294"/><rect fill="#000000" height="14" width="14" x="333" y="322"/><rect fill="#000000" height="14" width="14" x="333" y="336"/><rect fill="#000000" height="14" width="14" x="333" y="350"/><rect fill="#000000" height="14" width="14" x="333" y="378"/><rect fill="#000000" height="14" width="14" x="347" y="70"/><rect fill="#000000" height="14" width="14" x="347" y="98"/><rect fill="#000000" height="14" width="14" x="347" y="126"/><rect fill="#000000" height="14" width="14" x="347" y="140"/><rect fill="#000000" height="14" width="14" x="347" y="154"/><rect fill="#000000" height="14" width="14" x="347" y="168"/><rect fill="#000000" height="14" width="14" x="347" y="210"/><rect fill="#000000" height="14" width="14" x="347" y="252"/><rect fill="#000000" height="14" width="14" x="347" y="280"/><rect fill="#000000" height="14" width="14" x="347" y="294"/><rect fill="#000000" height="14" width="14" x="347" y="308"/><rect fill="#000000" height="14" width="14" x="347" y="322"/><rect fill="#000000" height="14" width="14" x="347" y="336"/><rect fill="#000000" height="14" width="14" x="347" y="350"/><rect fill="#000000" height="14" width="14" x="361" y="168"/><rect fill="#000000" height="14" width="14" x="361" y="182"/><rect fill="#000000" height="14" width="14" x="361" y="196"/><rect fill="#000000" height="14" width="14" x="361" y="224"/><rect fill="#000000" height="14" width="14" x="361" y="252"/><rect fill="#000000" height="14" width="14" x="361" y="280"/><rect fill="#000000" height="14" width="14" x="361" y="336"/><rect fill="#000000" height="14" width="14" x="361" y="378"/><rect fill="#000000" height="14" width="14" x="361" y="392"/><rect fill="#000000" height="14" width="14" x="375" y="56"/><rect fill="#000000" height="14" width="14" x="375" y="70"/><rect fill="#000000" height="14" width="14" x="375" y="84"/><rect fill="#000000" height="14" width="14" x="375" y="98"/><rect fill="#000000" height="14" width="14" x="375" y="112"/><rect fill="#000000" height="14" width="14" x="375" y="126"/><rect fill="#000000" height="14" width="14" x="375" y="140"/><rect fill="#000000" height="14" width="14" x="375" y="182"/><rect fill="#000000" height="14" width="14" x="375" y="196"/><rect fill="#000000" height="14" width="14" x="375" y="210"/><rect fill="#000000" height="14" width="14" x="375" y="224"/><rect fill="#000000" height="14" width="14" x="375" y="252"/><rect fill="#000000" height="14" width="14" x="375" y="280"/><rect fill="#000000" height="14" width="14" x="375" y="308"/><rect fill="#000000" height="14" width="14" x="375" y="336"/><rect fill="#000000" height="14" width="14" x="375" y="350"/><rect fill="#000000" height="14" width="14" x="375" y="378"/><rect fill="#000000" height="14" width="14" x="375" y="392"/><rect fill="#000000" height="14" width="14" x="389" y="56"/><rect fill="#000000" height="14" width="14" x="389" y="140"/><rect fill="#000000" height="14" width="14" x="389" y="168"/><rect fill="#000000" height="14" width="14" x="389" y="210"/><rect fill="#000000" height="14" width="14" x="389" y="238"/><rect fill="#000000" height="14" width="14" x="389" y="266"/><rect fill="#000000" height="14" width="14" x="389" y="280"/><rect fill="#000000" height="14" width="14" x="389" y="336"/><rect fill="#000000" height="14" width="14" x="389" y="350"/><rect fill="#000000" height="14" width="14" x="389" y="392"/><rect fill="#000000" height="14" width="14" x="403" y="56"/><rect fill="#000000" height="14" width="14" x="403" y="84"/><rect fill="#000000" height="14" width="14" x="403" y="98"/><rect fill="#000000" height="14" width="14" x="403" y="112"/><rect fill="#000000" height="14" width="14" x="403" y="140"/><rect fill="#000000" height="14" width="14" x="403" y="182"/><rect fill="#000000" height="14" width="14" x="403" y="196"/><rect fill="#000000" height="14" width="14" x="403" y="280"/><rect fill="#000000" height="14" width="14" x="403" y="294"/><rect fill="#000000" height="14" width="14" x="403" y="308"/><rect fill="#000000" height="14" width="14" x="403" y="322"/><rect fill="#000000" height="14" width="14" x="403" y="336"/><rect fill="#000000" height="14" width="14" x="403" y="350"/><rect fill="#000000" height="14" width="14" x="403" y="378"/><rect fill="#000000" height="14" width="14" x="417" y="56"/><rect fill="#000000" height="14" width="14" x="417" y="84"/><rect fill="#000000" height="14" width="14" x="417" y="98"/><rect fill="#000000" height="14" width="14" x="417" y="112"/><rect fill="#000000" height="14" width="14" x="417" y="140"/><rect fill="#000000" height="14" width="14" x="417" y="168"/><rect fill="#000000" height="14" width="14" x="417" y="182"/><rect fill="#000000" height="14" width="14" x="417" y="210"/><rect fill="#000000" height="14" width="14" x="417" y="266"/><rect fill="#000000" height="14" width="14" x="417" y="308"/><rect fill="#000000" height="14" width="14" x="417" y="378"/><rect fill="#000000" height="14" width="14" x="431" y="56"/><rect fill="#000000" height="14" width="14" x="431" y="84"/><rect fill="#000000" height="14" width="14" x="431" y="98"/><rect fill="#000000" height="14" width="14" x="431" y="112"/><rect fill="#000000" height="14" width="14" x="431" y="140"/><rect fill="#000000" height="14" width="14" x="431" y="196"/><rect fill="#000000" height="14" width="14" x="431" y="224"/><rect fill="#000000" height="14" width="14" x="431" y="266"/><rect fill="#000000" height="14" width="14" x="431" y="336"/><rect fill="#000000" height="14" width="14" x="431" y="392"/><rect fill="#000000" height="14" width="14" x="445" y="56"/><rect fill="#000000" height="14" width="14" x="445" y="140"/><rect fill="#000000" height="14" width="14" x="445" y="168"/><rect fill="#000000" height="14" width="14" x="445" y="210"/><rect fill="#000000" height="14" width="14" x="445" y="224"/><rect fill="#000000" height="14" width="14" x="445" y="266"/><rect fill="#000000" height="14" width="14" x="445" y="308"/><rect fill="#000000" height="14" width="14" x="445" y="350"/><rect fill="#000000" height="14" width="14" x="445" y="378"/><rect fill="#000000" height="14" width="14" x="445" y="392"/><rect fill="#000000" height="14" width="14" x="459" y="56"/><rect fill="#000000" height="14" width="14" x="459" y="70"/><rect fill="#000000" height="14" width="14" x="459" y="84"/><rect fill="#000000" height="14" width="14" x="459" y="98"/><rect fill="#000000" height="14" width="14" x="459" y="112"/><rect fill="#000000" height="14" width="14" x="459" y="126"/><rect fill="#000000" height="14" width="14" x="459" y="140"/><rect fill="#000000" height="14" width="14" x="459" y="196"/><rect fill="#000000" height="14" width="14" x="459" y="210"/><rect fill="#000000" height="14" width="14" x="459" y="224"/><rect fill="#000000" height="14" width="14" x="459" y="238"/><rect fill="#000000" height="14" width="14" x="459" y="266"/><rect fill="#000000" height="14" width="14" x="459" y="280"/><rect fill="#000000" height="14" width="14" x="459" y="294"/><rect fill="#000000" height="14" width="14" x="459" y="308"/><rect fill="#000000" height="14" width="14" x="459" y="350"/><rect fill="#000000" height="14" width="14" x="459" y="364"/><rect fill="#000000" height="14" width="14" x="459" y="392"/></svg>